Coordinates
version=1
nRows=49
nColumns=12
inDegrees=yes

Units are S.I. units (second, meters, Newtons, ...)
Angles are in degrees

endheader
time	SC_y	SC_z	SC_x	AC_y	AC_z	AC_x	GH_y	GH_z	GH_yy	EL_x	PS_y
       0.0               -24.6         0.8078          38.84          49.78          8.829          9.993          97.34          34.73          158.5          82.04          141.7
  0.003774               -24.6         0.8086          38.85          49.78          8.826          9.992          97.34          34.72          158.5          82.03          141.7
  0.007548               -24.6         0.8095          38.86          49.77          8.822           9.99          97.35          34.72          158.4          82.03          141.7
   0.01132              -24.61         0.8104          38.86          49.77          8.818          9.989          97.35          34.71          158.4          82.02          141.6
    0.0151              -24.61         0.8114          38.87          49.77          8.814          9.987          97.36           34.7          158.3          82.02          141.6
   0.01887              -24.61         0.8124          38.87          49.77          8.809          9.985          97.36           34.7          158.2          82.01          141.6
   0.02264              -24.62         0.8135          38.88          49.76          8.804          9.983          97.37          34.69          158.2          82.01          141.6
   0.02642              -24.62         0.8147          38.89          49.76          8.799          9.981          97.38          34.68          158.1           82.0          141.6
   0.03019              -24.63          0.816           38.9          49.75          8.794          9.979          97.39          34.67          158.1          81.99          141.6
   0.03397              -24.63         0.8174          38.91          49.75          8.788          9.976          97.39          34.66          158.0          81.98          141.6
   0.03774              -24.64         0.8188          38.92          49.74          8.781          9.974           97.4          34.65          157.9          81.97          141.5
   0.04152              -24.64         0.8204          38.93          49.74          8.774          9.971          97.41          34.64          157.8          81.97          141.5
   0.04529              -24.65         0.8221          38.94          49.73          8.767          9.968          97.42          34.63          157.7          81.96          141.5
   0.04906              -24.66         0.8239          38.95          49.73          8.759          9.965          97.43          34.61          157.6          81.95          141.5
   0.05284              -24.67         0.8259          38.96          49.72           8.75          9.961          97.44           34.6          157.5          81.93          141.4
   0.05661              -24.67         0.8281          38.98          49.71          8.741          9.957          97.46          34.58          157.4          81.92          141.4
   0.06039              -24.68         0.8304          38.99          49.71          8.731          9.953          97.47          34.57          157.2          81.91          141.4
   0.06416              -24.69          0.833          39.01           49.7           8.72          9.949          97.48          34.55          157.1          81.89          141.4
   0.06793               -24.7         0.8357          39.03          49.69          8.708          9.944           97.5          34.53          157.0          81.88          141.3
   0.07171              -24.72         0.8388          39.05          49.68          8.694          9.938          97.52          34.51          156.8          81.86          141.3
   0.07548              -24.73         0.8421          39.07          49.67           8.68          9.932          97.54          34.48          156.6          81.84          141.2
   0.07926              -24.74         0.8458          39.09          49.66          8.664          9.926          97.56          34.46          156.4          81.82          141.2
   0.08303              -24.76         0.8499          39.12          49.64          8.646          9.918          97.58          34.43          156.2           81.8          141.1
    0.0868              -24.78         0.8544          39.15          49.63          8.626           9.91          97.61           34.4          155.9          81.77          141.1
   0.09058               -24.8         0.8594          39.18          49.61          8.605          9.901          97.64          34.36          155.6          81.74          141.0
   0.09435              -24.82          0.865          39.22          49.59           8.58          9.891          97.67          34.32          155.3          81.71          141.0
   0.09813              -24.84         0.8713          39.26          49.57          8.553           9.88          97.71          34.28          155.0          81.67          140.9
    0.1019              -24.87         0.8783           39.3          49.55          8.522          9.868          97.75          34.23          154.6          81.63          140.8
    0.1057               -24.9         0.8863          39.35          49.53          8.488          9.854           97.8          34.17          154.1          81.59          140.7
    0.1094              -24.93         0.8953          39.41           49.5          8.448          9.838          97.85           34.1          153.6          81.54          140.6
    0.1132              -24.97         0.9056          39.48          49.46          8.404          9.819          97.91          34.03          153.1          81.48          140.4
     0.117              -25.02         0.9175          39.56          49.42          8.352          9.798          97.98          33.95          152.4          81.41          140.3
    0.1208              -25.07         0.9311          39.65          49.38          8.293          9.774          98.06          33.85          151.6          81.33          140.1
    0.1245              -25.13          0.947          39.75          49.33          8.223          9.745          98.15          33.74          150.8          81.24          139.9
    0.1283               -25.2         0.9656          39.87          49.27          8.143          9.712          98.26           33.6          149.7          81.13          139.7
    0.1321              -25.29         0.9875          40.01           49.2          8.047          9.673          98.39          33.45          148.5          81.01          139.4
    0.1359              -25.39          1.014          40.18          49.11          7.934          9.627          98.54          33.26          147.0          80.86          139.1
    0.1396              -25.51          1.045          40.39          49.01          7.798          9.571          98.72          33.04          145.3          80.68          138.7
    0.1434              -25.65          1.082          40.63          48.89          7.634          9.504          98.94          32.77          143.2          80.46          138.2
    0.1472              -25.83          1.129          40.93          48.74          7.433          9.422          99.21          32.44          140.6           80.2          137.6
     0.151              -26.05          1.186           41.3          48.55          7.186          9.321          99.55          32.03          137.5          79.87          136.9
    0.1547              -26.33          1.257          41.76          48.32          6.877          9.194          99.96          31.53          133.5          79.47          136.0
    0.1585              -26.67          1.346          42.35          48.03          6.488          9.035          100.5          30.89          128.5          78.95          134.8
    0.1623              -27.11           1.46          43.09          47.66          5.993          8.833          101.1          30.08          122.2           78.3          133.4
    0.1661              -27.67          1.605          44.03          47.19           5.36          8.574          102.0          29.04          114.1          77.47          131.5
    0.1698              -28.39          1.792          45.25          46.59          4.547          8.241          103.1           27.7          103.7           76.4          129.1
    0.1736              -29.31           2.03           46.8          45.81           3.51          7.817          104.5           26.0          90.39          75.03          126.1
    0.1774              -30.46           2.33          48.75          44.84          2.205          7.283          106.2          23.86          73.68          73.32          122.3
    0.1812              -31.87          2.696          51.13          43.65         0.6148          6.632          108.4          21.25          53.32          71.22          117.6
